<svg width="120" height="47" viewBox="0 0 120 47" fill="none" xmlns="http://www.w3.org/2000/svg">
<path d="M94.2784 31.9796C93.0987 31.9796 92.1423 31.0232 92.1423 29.8435V12.3397C92.1423 11.16 93.0987 10.2036 94.2784 10.2036C95.4581 10.2036 96.4145 11.16 96.4145 12.3397V29.8435C96.4145 31.0232 95.4581 31.9796 94.2784 31.9796ZM94.2162 5.39215C93.3037 5.39215 92.5985 5.1571 92.1008 4.68702C91.6031 4.21693 91.3542 3.55329 91.3542 2.69607C91.3542 1.89416 91.6031 1.24434 92.1008 0.746605C92.6262 0.248868 93.3313 0 94.2162 0C95.1287 0 95.8338 0.235042 96.3316 0.705127C96.8293 1.17521 97.0782 1.83886 97.0782 2.69607C97.0782 3.49798 96.8155 4.1478 96.2901 4.64554C95.7923 5.14328 95.101 5.39215 94.2162 5.39215Z" fill="white"/>
<path d="M83.2463 31.9787C82.0665 31.9787 81.1101 31.0223 81.1101 29.8425V3.42103C81.1101 2.24129 82.0665 1.28491 83.2463 1.28491C84.426 1.28491 85.3824 2.24129 85.3824 3.42103V29.8425C85.3824 31.0223 84.426 31.9787 83.2463 31.9787Z" fill="white"/>
<path d="M63.1579 32.3932C61.3605 32.3932 59.7152 31.8954 58.222 30.9C56.7564 29.9045 55.5812 28.5495 54.6964 26.8351C53.8115 25.1207 53.3691 23.185 53.3691 21.0282C53.3691 18.8437 53.8115 16.908 54.6964 15.2213C55.6089 13.5068 56.8256 12.1657 58.3464 11.1979C59.8949 10.2301 61.6232 9.74615 63.5312 9.74615C64.6649 9.74615 65.7019 9.91207 66.642 10.2439C67.5822 10.5757 68.3979 11.0458 69.0892 11.6541C69.8082 12.2348 70.3889 12.9123 70.8313 13.6866C71.1774 14.2565 71.426 14.8564 71.5772 15.4862C71.6526 15.8 71.3454 16.0511 71.0406 15.9451C70.8656 15.8842 70.7484 15.7193 70.7484 15.534V12.3593C70.7484 11.1681 71.714 10.2024 72.9052 10.2024C74.0964 10.2024 75.0621 11.1681 75.0621 12.3593V29.8215C75.0621 31.0127 74.0964 31.9784 72.9052 31.9784C71.714 31.9784 70.7484 31.0127 70.7484 29.8215V27.1123C70.7484 26.9235 70.873 26.7573 71.0543 26.7044C71.3645 26.6139 71.6522 26.8885 71.5387 27.191C71.3473 27.7012 71.07 28.2047 70.7069 28.7016C70.2092 29.3929 69.5593 30.0151 68.7574 30.5681C67.9832 31.1212 67.1121 31.5636 66.1443 31.8954C65.2041 32.2273 64.2087 32.3932 63.1579 32.3932ZM64.2778 28.4528C65.5774 28.4528 66.725 28.1348 67.7205 27.4988C68.7159 26.8628 69.4902 25.9917 70.0432 24.8856C70.6239 23.7519 70.9143 22.4661 70.9143 21.0282C70.9143 19.6179 70.6239 18.3598 70.0432 17.2537C69.4902 16.1476 68.7159 15.2766 67.7205 14.6406C66.725 14.0046 65.5774 13.6866 64.2778 13.6866C63.0058 13.6866 61.8721 14.0046 60.8766 14.6406C59.9088 15.2766 59.1345 16.1476 58.5538 17.2537C58.0008 18.3598 57.7243 19.6179 57.7243 21.0282C57.7243 22.4661 58.0008 23.7519 58.5538 24.8856C59.1345 25.9917 59.9088 26.8628 60.8766 27.4988C61.8721 28.1348 63.0058 28.4528 64.2778 28.4528Z" fill="white"/>
<path d="M40.6378 32.3942C38.398 32.3942 36.407 31.9241 34.6649 30.9839C32.9505 30.0161 31.5956 28.7026 30.6001 27.0435C29.6323 25.3844 29.1484 23.4764 29.1484 21.3195C29.1484 19.6051 29.4249 18.0428 29.9779 16.6325C30.531 15.2223 31.2914 14.0056 32.2592 12.9825C33.2547 11.9317 34.4299 11.1298 35.7848 10.5767C37.1675 9.99604 38.6607 9.70569 40.2645 9.70569C41.6747 9.70569 42.9882 9.98221 44.2049 10.5352C45.4216 11.0606 46.4724 11.7934 47.3572 12.7336C48.2697 13.6738 48.961 14.7937 49.4311 16.0933C49.9289 17.3653 50.1639 18.7617 50.1363 20.2826C50.1132 21.2972 49.2841 22.1076 48.2693 22.1076H33.5899C32.8276 22.1076 32.1584 21.6003 31.9525 20.8663C31.6483 19.7817 32.4635 18.7064 33.5899 18.7064H45.9745C46.1411 18.7064 46.2298 18.903 46.1196 19.0279C46.0017 19.1615 45.7811 19.0781 45.7811 18.8999V18.4161C45.6981 17.5036 45.3939 16.6878 44.8685 15.9689C44.3432 15.2499 43.6795 14.6831 42.8776 14.2683C42.0757 13.8535 41.2046 13.6461 40.2645 13.6461C38.7713 13.6461 37.5131 13.9364 36.49 14.5171C35.4669 15.0702 34.6926 15.8997 34.1672 17.0058C33.6418 18.0843 33.3791 19.4254 33.3791 21.0292C33.3791 22.5501 33.6971 23.8774 34.3331 25.0111C34.9691 26.1172 35.8678 26.9744 37.0292 27.5827C38.1906 28.1911 39.5317 28.4952 41.0526 28.4952C42.131 28.4952 43.1265 28.3155 44.039 27.956C44.4738 27.7898 44.9234 27.5614 45.3877 27.271C46.3433 26.6733 47.6337 26.8022 48.2876 27.7203C48.828 28.4789 48.7491 29.533 47.9815 30.0605C47.6101 30.3157 47.2085 30.5544 46.7765 30.7765C45.8364 31.2743 44.8271 31.6752 43.7486 31.9794C42.6979 32.2559 41.6609 32.3942 40.6378 32.3942Z" fill="white"/>
<path d="M21.1953 31.9803C19.9583 31.9803 18.9555 30.9775 18.9555 29.7405V5.1855C18.9555 3.94848 19.9583 2.94568 21.1953 2.94568C22.4323 2.94568 23.4351 3.94848 23.4351 5.18549V29.7405C23.4351 30.9775 22.4323 31.9803 21.1953 31.9803ZM2.23981 31.9803C1.0028 31.9803 0 30.9775 0 29.7405V5.1855C0 3.94848 1.0028 2.94568 2.23981 2.94568C3.47683 2.94568 4.47963 3.94848 4.47963 5.18549V29.7405C4.47963 30.9775 3.47683 31.9803 2.23981 31.9803ZM4.10633 19.6613C2.91513 19.6613 1.94947 18.6957 1.94947 17.5045C1.94947 16.3133 2.91513 15.3476 4.10633 15.3476H18.7896C19.9808 15.3476 20.9464 16.3133 20.9464 17.5045C20.9464 18.6957 19.9808 19.6613 18.7896 19.6613H4.10633Z" fill="white"/>
<path d="M101.086 14.1665C100.055 14.1665 99.2195 13.3308 99.2195 12.2999C99.2195 11.2691 100.055 10.4334 101.086 10.4334H118.134C119.164 10.4334 120 11.2691 120 12.2999C120 13.3308 119.164 14.1665 118.134 14.1665H101.086ZM109.568 28.5229C108.366 28.5229 107.391 27.548 107.391 26.3453V4.31542C107.391 3.11276 108.366 2.13782 109.568 2.13782C110.771 2.13782 111.746 3.11276 111.746 4.31541V26.3453C111.746 27.548 110.771 28.5229 109.568 28.5229Z" fill="white"/>
<path d="M108.335 31.1105C108.408 31.1098 108.48 31.1092 108.554 31.1085C108.671 31.1091 108.671 31.1091 108.79 31.1098C108.87 31.1096 108.95 31.1094 109.033 31.1092C109.202 31.109 109.371 31.1094 109.54 31.1103C109.8 31.1114 110.059 31.1103 110.319 31.109C110.483 31.1091 110.647 31.1094 110.812 31.1098C110.89 31.1094 110.968 31.109 111.048 31.1085C111.12 31.1092 111.192 31.1098 111.267 31.1105C111.326 31.1106 111.348 31.1107 111.38 31.1108C111.433 31.1109 111.486 31.1145 111.538 31.1243C111.571 31.1305 111.594 31.1365 111.615 31.1455C111.708 31.1846 111.778 31.269 111.813 31.3638C111.867 31.5088 111.848 31.6548 111.822 31.8256C111.443 33.4493 110.617 35.0239 109.666 36.3692C109.635 36.4141 109.603 36.4591 109.57 36.5054C108.583 37.8952 107.468 39.273 106.149 40.3445C106.027 40.4445 105.908 40.5471 105.791 40.6527C104.254 42.0292 102.255 43.2463 100.349 44.0063C100.139 44.0902 99.9338 44.1839 99.7277 44.2773C98.8615 44.6563 97.9734 44.97 97.0554 45.1881C96.8393 45.2396 96.6248 45.295 96.4102 45.3525C90.8622 46.8221 84.9301 46.092 75.6454 43.104C75.4842 43.0386 75.3222 42.986 75.155 42.9392C74.9629 42.8854 74.7895 42.8222 74.6059 42.7416C74.3595 42.6339 74.1127 42.5462 73.8579 42.4616C73.5535 42.3597 73.251 42.2555 72.9519 42.1381C72.6375 42.0166 72.32 41.9037 72.0033 41.7887C71.8733 41.7415 71.7435 41.694 71.6136 41.6464C70.9231 41.3945 70.2283 41.1578 69.5307 40.9274C69.3552 40.8694 69.1798 40.8112 69.0044 40.753C68.6783 40.6448 68.3519 40.5375 68.0253 40.4308C67.9478 40.4054 67.8703 40.3801 67.7904 40.3539C67.1722 40.1554 66.547 39.9853 65.9197 39.8198C65.8629 39.8049 65.8062 39.7899 65.7478 39.7744C64.6816 39.4943 63.6108 39.2738 62.5245 39.0924C62.3872 39.0691 62.25 39.0446 62.1133 39.0177C60.8445 38.7744 59.5302 38.744 58.2425 38.7399C58.1695 38.7396 58.0964 38.7394 58.0212 38.7391C55.4406 38.7391 52.9087 39.2421 50.4791 40.1218C50.4167 40.1442 50.3544 40.1666 50.2901 40.1896C50.2357 40.2096 50.1813 40.2296 50.1252 40.2502C50.029 40.2764 49.9402 40.2891 49.8495 40.2939C49.731 40.3001 49.6299 40.2128 49.6684 40.1006C49.6823 40.0601 49.7167 40.0045 49.752 39.9804C49.8412 39.9194 49.8644 39.9084 50.0198 39.8349C50.0864 39.8029 50.1531 39.7708 50.2218 39.7378C50.3272 39.689 50.3272 39.689 50.4348 39.6391C50.5028 39.6066 50.5708 39.574 50.6408 39.5404C52.1753 38.8116 53.767 38.3013 55.4289 37.9842C55.5774 37.9624 55.7083 37.869 55.8565 37.8449C55.9783 37.8251 56.1002 37.8066 56.2227 37.789C56.2839 37.7801 56.3451 37.7712 56.4081 37.762C56.5387 37.7431 56.6693 37.7244 56.8 37.7058C56.9952 37.6779 57.1904 37.649 57.3855 37.6201C58.6896 37.4307 59.9757 37.3889 61.2919 37.389C61.5139 37.3889 61.7359 37.3876 61.9579 37.3863C63.9957 37.3809 64.0955 37.3292 64.9031 37.5359C64.9493 37.5477 64.9965 37.5557 65.0436 37.5631C65.0487 37.5639 65.0538 37.5647 65.0589 37.5656C65.2035 37.5904 65.3436 37.6323 65.4902 37.6394C65.4949 37.6397 65.4995 37.64 65.5039 37.6403C65.6409 37.651 65.7415 37.6779 65.8786 37.6883C66.2534 37.7191 66.6136 37.7685 66.9811 37.8491C67.282 37.9109 67.5863 37.9473 67.8905 37.9869C68.3127 38.0419 68.7293 38.1058 69.1461 38.1944C69.2963 38.226 69.4467 38.2545 69.5977 38.2817C69.6429 38.2899 69.6882 38.2982 69.7348 38.3067C69.8263 38.3233 69.9179 38.3396 70.0096 38.3556C70.1996 38.3907 70.3598 38.4364 70.5255 38.5103C70.6114 38.5485 70.6998 38.582 70.7924 38.5987C70.8791 38.6144 70.966 38.6284 71.0532 38.6409C71.252 38.6697 71.4279 38.6954 71.6135 38.7743C71.7815 38.8407 71.9291 38.8769 72.1052 38.9109C72.5074 38.989 72.8991 39.0979 73.2936 39.2089C73.4495 39.2522 73.6054 39.2955 73.7613 39.3388C73.839 39.3604 73.9168 39.382 73.9969 39.4042C74.3333 39.4972 74.6703 39.588 75.0076 39.6779C75.0698 39.6945 75.132 39.7111 75.1961 39.7282C75.5332 39.8176 75.8707 39.905 76.2088 39.9903C76.2811 40.0086 76.3534 40.0269 76.4279 40.0457C76.5658 40.0804 76.7037 40.1149 76.8417 40.1491C77.1302 40.2217 77.4135 40.2978 77.6943 40.3972C78.0396 40.5184 78.3911 40.5993 78.7472 40.6804C78.904 40.7164 79.0607 40.7526 79.2175 40.7887C79.3027 40.8084 79.3878 40.828 79.4755 40.8483C79.7149 40.9041 79.9536 40.9627 80.1922 41.022C81.432 41.3299 82.6715 41.5988 83.9312 41.8076C83.992 41.8178 84.0528 41.828 84.1154 41.8385C84.7519 41.9441 85.3814 42.0349 86.0259 42.0685C86.2077 42.0822 86.3768 42.1133 86.5548 42.1519C86.7119 42.1652 86.8692 42.1766 87.0265 42.1863C87.469 42.2136 87.469 42.2136 87.6408 42.2556C87.9194 42.3043 88.1941 42.3007 88.4762 42.3011C88.5388 42.3013 88.6015 42.3016 88.666 42.3018C88.7987 42.3021 88.9315 42.3023 89.0642 42.3023C89.2634 42.3024 89.4625 42.3037 89.6617 42.305C90.4345 42.3073 91.1803 42.2601 91.9453 42.1519C92.0695 42.1382 92.1938 42.1251 92.3182 42.1131C92.3957 42.1054 92.3957 42.1054 92.4747 42.0975C92.5761 42.0876 92.6775 42.078 92.779 42.0685C93.1191 42.0341 93.4337 41.9643 93.7645 41.8765C93.9159 41.8555 94.0655 41.8429 94.2178 41.8313C94.4128 41.8012 94.5883 41.7339 94.7752 41.67C94.9351 41.6346 95.0951 41.6003 95.2553 41.5667C97.9112 40.9569 100.451 39.579 102.591 37.8837C102.648 37.8393 102.704 37.7949 102.763 37.7492C103.91 36.8325 105.01 35.7612 105.874 34.5611C105.963 34.4374 106.055 34.3154 106.146 34.1934C106.757 33.3722 107.358 32.4647 107.716 31.4943C107.852 31.1718 107.999 31.1114 108.335 31.1105Z" fill="white"/>
</svg>
